<?xml version="1.0" encoding="UTF-8"?>
<svg id="Layer_2" xmlns="http://www.w3.org/2000/svg" viewBox="0 0 580.63 456.86">
  <defs>
    <style>
      .colour {
        fill: #ffe6f0;
      }
    </style>
  </defs>
  <g>
    <g>
      <path class="colour" d="M450.71,152.51h37.56l-6.48-11.29c-1.38,2.78-2.98,5.44-4.82,7.94-.33.45-1.19,1.48.28-.34-.23.29-.46.58-.69.87-.47.57-.95,1.14-1.44,1.69-1.02,1.15-2.1,2.26-3.22,3.32s-2.3,2.06-3.5,3.03c-1.01.81,1.47-1.08.34-.27-.3.22-.6.44-.9.66-.6.43-1.22.85-1.84,1.25-2.61,1.7-5.37,3.15-8.23,4.37l1.79-.76c-4.27,1.78-8.74,2.99-13.32,3.62l1.99-.27c-4.61.59-9.26.59-13.87,0l1.99.27c-4.56-.63-9.01-1.83-13.26-3.59l1.79.76c-3.11-1.32-6.1-2.91-8.9-4.79-.65-.44-1.29-.89-1.92-1.35-1.49-1.1,1.16.94.19.16-.35-.28-.7-.56-1.04-.84-1.24-1.03-2.44-2.12-3.59-3.27s-2.24-2.34-3.27-3.58c-.29-.34-.56-.69-.84-1.04-.79-.98,1.26,1.68.16.19-.46-.63-.92-1.27-1.35-1.92-1.88-2.81-3.48-5.79-4.79-8.9l.76,1.79c-1.77-4.26-2.97-8.71-3.59-13.28l.27,1.99c-.6-4.67-.58-9.39.02-14.06l-.27,1.99c.62-4.53,1.81-8.94,3.56-13.16l-.76,1.79c1.29-3.06,2.86-5.99,4.7-8.75.44-.66.9-1.31,1.37-1.96.35-.48,1.51-1.79-.14.16.29-.35.57-.71.86-1.06,1.01-1.22,2.08-2.4,3.21-3.52s2.29-2.2,3.51-3.22c.35-.29.7-.57,1.06-.86,1.03-.84-1.6,1.21-.3.24.68-.51,1.38-1,2.09-1.48,2.75-1.85,5.68-3.43,8.73-4.73l-1.79.76c4.2-1.77,8.59-2.98,13.1-3.61l-1.99.27c4.73-.63,9.51-.67,14.24-.06l-1.99-.27c4.64.62,9.16,1.85,13.48,3.65l-1.79-.76c2.81,1.2,5.51,2.62,8.07,4.28.68.44,1.36.9,2.02,1.38.28.2.56.41.85.62,1.08.8-1.39-1.11-.41-.32,1.22.98,2.42,2,3.56,3.08s2.15,2.12,3.15,3.25c.5.56.99,1.14,1.47,1.73.22.27.43.55.65.82-1.56-1.93-.56-.73-.22-.27,1.84,2.5,3.44,5.16,4.81,7.93l6.48-11.29c-10.59,0-21.19,0-31.78,0-1.67,0-3.35,0-5.03,0-4.93,0-9.52,1.14-13.97,3.19-10.72,4.92-17.82,16.69-17.25,28.45.38,7.77,3.56,15.28,9.18,20.71s13.37,8.59,21.3,8.66c3.92.03,7.68-3.47,7.5-7.5s-3.29-7.46-7.5-7.5c-1.09,0-2.17-.08-3.26-.23l1.99.27c-1.97-.3-3.86-.82-5.7-1.58l1.79.76c-1.31-.56-2.56-1.23-3.75-2.01-.04-.03-.96-.64-.95-.66,0,0,1.61,1.3.46.34-.54-.45-1.06-.93-1.56-1.42-.45-.45-.88-.92-1.29-1.4-.46-.55-.72-1.37.22.32-.18-.33-.45-.63-.66-.94-.78-1.18-1.44-2.43-2.01-3.72l.76,1.79c-.81-1.95-1.35-3.97-1.64-6.06l.27,1.99c-.23-1.96-.24-3.92,0-5.89l-.27,1.99c.28-2.03.81-3.99,1.59-5.88l-.76,1.79c.57-1.32,1.25-2.59,2.06-3.79.18-.27.38-.54.57-.81.75-1.07-1.31,1.54-.25.35.48-.53.94-1.07,1.45-1.57.47-.46.96-.91,1.47-1.33,1.29-1.08-.83.57-.35.26.32-.21.63-.45.95-.66,1.21-.8,2.48-1.47,3.81-2.04l-1.79.76c1.99-.83,4.06-1.39,6.19-1.69l-1.99.27c1.92-.24,3.84-.2,5.78-.2h8.7c6.93,0,13.86,0,20.79,0,1.64,0,3.29,0,4.93,0,2.64,0,5.14-1.43,6.48-3.71,1.43-2.44,1.21-5.12,0-7.57-4.54-9.18-11.56-16.92-19.96-22.72s-18.68-9.21-29.01-10.09-21.12,1.31-30.64,5.8c-9.03,4.26-16.61,11.01-22.5,19.01-11.74,15.96-14.45,38.34-6.95,56.66,3.72,9.09,9.32,17.36,16.92,23.67s17.19,11.28,27.29,13.13c12.76,2.33,25.6.67,37.33-4.82,9.74-4.56,18-12.05,23.98-20.94,1.32-1.96,2.49-4.01,3.54-6.12,1.21-2.45,1.43-5.13,0-7.57-1.33-2.28-3.83-3.71-6.48-3.71h-37.56c-3.92,0-7.68,3.45-7.5,7.5s3.3,7.5,7.5,7.5Z"/>
      <path class="colour" d="M83.26,225.3c2.01,6.39,4.01,12.79,6.02,19.18,3.18,10.14,6.36,20.29,9.54,30.43.73,2.34,1.47,4.67,2.2,7.01,2.41-3.16,4.82-6.33,7.23-9.49H27.84l7.5,7.5v-77.96c0-3.59.11-7.19,0-10.78,0-.05,0-.1,0-.16l-7.5,7.5h34.65c-2.41-3.16-4.82-6.33-7.23-9.49-.96,2.36-1.9,4.2-1.2,6.95.11.42.25.84.37,1.25l2.23,7.58c2.05,6.97,4.1,13.95,6.15,20.92.5,1.71,1.01,3.43,1.51,5.14,1.13,3.84,5.27,6.4,9.23,5.24,6.32-1.86,12.63-3.72,18.95-5.57,3.76-1.11,6.5-5.32,5.24-9.23s-5.19-6.42-9.23-5.24c-6.32,1.86-12.63,3.72-18.95,5.57l9.23,5.24c-3-10.2-6-20.4-9-30.6-.42-1.43-.84-2.86-1.26-4.29v3.99c.4-.98.8-1.97,1.2-2.95.87-2.14-.02-4.83-1.34-6.54-1.43-1.85-3.51-2.96-5.89-2.96H27.84c-4.05,0-7.5,3.44-7.5,7.5v77.96c0,3.59-.08,7.19,0,10.78,0,.05,0,.1,0,.16,0,4.05,3.44,7.5,7.5,7.5h80.41c4.73,0,8.7-4.81,7.23-9.49-2.01-6.39-4.01-12.79-6.02-19.18-3.18-10.14-6.36-20.29-9.54-30.43-.73-2.34-1.47-4.67-2.2-7.01-1.17-3.74-5.28-6.52-9.23-5.24s-6.5,5.22-5.24,9.23Z"/>
      <path class="colour" d="M136.23,198.53h56.85l-7.5-7.5v77.96c0,3.59-.11,7.19,0,10.78,0,.05,0,.1,0,.16l7.5-7.5h-48.65l7.23,5.51c-2.34-7.47-4.68-14.93-7.03-22.4-3.74-11.91-7.47-23.81-11.21-35.72-.86-2.74-1.72-5.48-2.58-8.23-1.75,3.08-3.49,6.15-5.24,9.23,5.9-1.74,11.8-3.47,17.71-5.21,3.84-1.13,6.4-5.27,5.24-9.23-1.7-5.78-3.4-11.56-5.09-17.34-1.1-3.76-5.33-6.5-9.23-5.24s-6.42,5.19-5.24,9.23c1.7,5.78,3.4,11.56,5.09,17.34,1.75-3.08,3.49-6.15,5.24-9.23-5.9,1.74-11.8,3.47-17.71,5.21-3.78,1.11-6.47,5.29-5.24,9.23,2.34,7.47,4.68,14.93,7.03,22.4,3.74,11.91,7.47,23.81,11.21,35.72.86,2.74,1.72,5.48,2.58,8.23.99,3.16,3.85,5.51,7.23,5.51h48.65c4.05,0,7.5-3.44,7.5-7.5v-77.96c0-3.59.08-7.19,0-10.78,0-.05,0-.1,0-.16,0-4.05-3.44-7.5-7.5-7.5h-56.85c-3.92,0-7.68,3.45-7.5,7.5s3.3,7.5,7.5,7.5Z"/>
      <path class="colour" d="M360.41,198.53h62.75l-7.5-7.5v77.96c0,3.59-.11,7.19,0,10.78,0,.05,0,.1,0,.16l7.5-7.5h-62.75l7.5,7.5v-77.96c0-3.59.08-7.19,0-10.78,0-.05,0-.1,0-.16,0-3.92-3.45-7.68-7.5-7.5s-7.5,3.3-7.5,7.5v77.96c0,3.59-.08,7.19,0,10.78,0,.05,0,.1,0,.16,0,4.05,3.44,7.5,7.5,7.5h62.75c4.05,0,7.5-3.44,7.5-7.5v-77.96c0-3.59.08-7.19,0-10.78,0-.05,0-.1,0-.16,0-4.05-3.44-7.5-7.5-7.5h-62.75c-3.92,0-7.68,3.45-7.5,7.5s3.3,7.5,7.5,7.5Z"/>
      <path class="colour" d="M515.02,191.03v77.96c0,3.59-.11,7.19,0,10.78,0,.05,0,.1,0,.16l7.5-7.5h-64.84l7.5,7.5v-77.96c0-3.59.11-7.19,0-10.78,0-.05,0-.1,0-.16l-7.5,7.5h64.84c3.92,0,7.68-3.45,7.5-7.5s-3.3-7.5-7.5-7.5h-64.84c-4.05,0-7.5,3.44-7.5,7.5v77.96c0,3.59-.08,7.19,0,10.78,0,.05,0,.1,0,.16,0,4.05,3.44,7.5,7.5,7.5h64.84c4.05,0,7.5-3.44,7.5-7.5v-77.96c0-3.59.08-7.19,0-10.78,0-.05,0-.1,0-.16,0-3.92-3.45-7.68-7.5-7.5s-7.5,3.3-7.5,7.5Z"/>
      <path class="colour" d="M490.56,289.52c.46,0,.92.04,1.38.1l-1.99-.27c.89.14,1.74.38,2.58.73l-1.79-.76c.5.23.99.48,1.45.78.74.48.63.88-.47-.39.17.2.41.37.6.56.06.06.58.57.56.6-.03.04-1.21-1.79-.48-.6.32.52.62,1.03.87,1.59l-.76-1.79c.35.84.59,1.68.73,2.58l-.27-1.99c.2,1.67.1,3.39.1,5.07v10.69c0,11.78,0,23.56,0,35.34s0,28.58,0,42.87,0,24.64,0,36.96c0,5.88.04,11.76,0,17.63,0,.52-.03,1.03-.1,1.54l.27-1.99c-.14.89-.38,1.74-.73,2.58l.76-1.79c-.23.5-.48.99-.78,1.45-.48.74-.88.63.39-.47-.2.17-.37.41-.56.6-.06.06-.57.58-.6.56-.04-.03,1.79-1.21.6-.48-.52.32-1.03.62-1.59.87l1.79-.76c-.84.35-1.68.59-2.58.73l1.99-.27c-1.27.16-2.58.1-3.86.1h-87.68c-4.04,0-8.07.04-12.11,0-.5,0-.98-.04-1.48-.1l1.99.27c-.89-.14-1.74-.38-2.58-.73l1.79.76c-.5-.23-.99-.48-1.45-.78-.74-.48-.63-.88.47.39-.17-.2-.41-.37-.6-.56-.06-.06-.58-.57-.56-.6.03-.04,1.21,1.79.48.6-.32-.52-.62-1.03-.87-1.59l.76,1.79c-.35-.84-.59-1.68-.73-2.58l.27,1.99c-.2-1.67-.1-3.39-.1-5.07v-10.69c0-11.78,0-23.56,0-35.34s0-28.58,0-42.87,0-24.64,0-36.96c0-5.88-.04-11.76,0-17.63,0-.52.03-1.03.1-1.54l-.27,1.99c.14-.89.38-1.74.73-2.58l-.76,1.79c.23-.5.48-.99.78-1.45.48-.74.88-.63-.39.47.2-.17.37-.41.56-.6.06-.06.57-.58.6-.56.04.03-1.79,1.21-.6.48.52-.32,1.03-.62,1.59-.87l-1.79.76c.84-.35,1.68-.59,2.58-.73l-1.99.27c3.13-.38,6.43-.1,9.58-.1h14.02c1.37,0,2.77-.07,4.14.1l-1.99-.27c.89.14,1.74.38,2.58.73l-1.79-.76c.5.23.99.48,1.45.78.74.48.63.88-.47-.39.17.2.41.37.6.56.06.06.58.57.56.6-.03.04-1.21-1.79-.48-.6.32.52.62,1.03.87,1.59l-.76-1.79c.35.84.59,1.68.73,2.58l-.27-1.99c.15,1.27.1,2.57.1,3.84v55.24c0,4.63,0,9.26,0,13.89.01,6.13,2.83,11.38,7.77,14.95,4.15,3,9.02,3,13.87,3,3.42,0,6.85.04,10.27,0,8-.08,15.85-5.8,17.22-13.96.72-4.29.39-8.79.39-13.12v-61.94c0-.64.02-1.26.1-1.9l-.27,1.99c.14-.89.38-1.74.73-2.58l-.76,1.79c.23-.5.48-.99.78-1.45.48-.74.88-.63-.39.47.2-.17.37-.41.56-.6.06-.06.57-.58.6-.56.04.03-1.79,1.21-.6.48.52-.32,1.03-.62,1.59-.87l-1.79.76c.84-.35,1.68-.59,2.58-.73l-1.99.27c2.8-.34,5.75-.1,8.56-.1h15.7c3.92,0,7.68-3.45,7.5-7.5s-3.3-7.5-7.5-7.5h-22.08c-3.13,0-6.02.61-8.85,1.98-4.39,2.13-7.96,6.7-8.97,11.47-.51,2.41-.48,4.7-.48,7.13v52.53c0,5.43.05,10.86,0,16.29,0,.51-.03,1.01-.1,1.52l.27-1.99c-.14.89-.38,1.74-.73,2.58l.76-1.79c-.23.5-.48.99-.78,1.45-.48.74-.88.63.39-.47-.2.17-.37.41-.56.6-.06.06-.57.58-.6.56-.04-.03,1.79-1.21.6-.48-.52.32-1.03.62-1.59.87l1.79-.76c-.84.35-1.68.59-2.58.73l1.99-.27c-2.83.35-5.8.1-8.64.1s-5.81.25-8.64-.1l1.99.27c-.89-.14-1.74-.38-2.58-.73l1.79.76c-.5-.23-.99-.48-1.45-.78-.74-.48-.63-.88.47.39-.17-.2-.41-.37-.6-.56-.06-.06-.58-.57-.56-.6.03-.04,1.21,1.79.48.6-.32-.52-.62-1.03-.87-1.59l.76,1.79c-.35-.84-.59-1.68-.73-2.58l.27,1.99c-.28-2.33-.1-4.77-.1-7.12v-64.4c0-.63,0-1.27,0-1.9-.1-6.25-3.5-12.46-9.16-15.38-3.2-1.65-6.53-2.13-10.05-2.13h-7.8c-5.08,0-10.17-.03-15.25,0-9.75.05-17.65,7.92-17.71,17.68,0,1.58,0,3.16,0,4.74v139.3c0,1.32-.08,2.67.04,3.98.64,7.38,5.11,13.29,12.13,15.79,1.9.68,3.96.85,5.97.85h7.65c10.82,0,21.65,0,32.47,0,12.67,0,25.34,0,38.01,0,7.57,0,15.14,0,22.72,0,1.54,0,3.06-.13,4.59-.42,6.32-1.17,11.85-6.64,13.27-12.87.54-2.36.52-4.57.52-6.94v-21.86c0-11.81,0-23.61,0-35.42v-71.36c0-5.22.02-10.45,0-15.67-.04-9.73-7.75-17.62-17.5-17.79-3.92-.07-7.68,3.5-7.5,7.5s3.29,7.43,7.5,7.5Z"/>
      <path class="colour" d="M498.99,365.51h-41.83c-3.92,0-7.68,3.45-7.5,7.5s3.3,7.5,7.5,7.5h41.83c3.92,0,7.68-3.45,7.5-7.5s-3.3-7.5-7.5-7.5h0Z"/>
      <path class="colour" d="M171.64,365.51h-104.54c-4.82,0-9.66-.1-14.49,0-.07,0-.13,0-.2,0-3.92,0-7.68,3.45-7.5,7.5s3.3,7.5,7.5,7.5h104.54c4.82,0,9.66.1,14.49,0,.07,0,.13,0,.2,0,3.92,0,7.68-3.45,7.5-7.5s-3.3-7.5-7.5-7.5h0Z"/>
      <path class="colour" d="M84.27,127.61c-2.55-8.59-5.1-17.17-7.65-25.76-4.03-13.57-8.06-27.14-12.09-40.71-.92-3.1-1.84-6.21-2.76-9.31-1.12-3.76-5.32-6.5-9.23-5.24s-6.43,5.2-5.24,9.23c2.55,8.59,5.1,17.17,7.65,25.76,4.03,13.57,8.06,27.14,12.09,40.71.92,3.1,1.84,6.21,2.76,9.31,1.12,3.76,5.32,6.5,9.23,5.24s6.43-5.2,5.24-9.23h0Z"/>
      <path class="colour" d="M422.64,365.51h-43.93c-3.92,0-7.68,3.45-7.5,7.5s3.3,7.5,7.5,7.5h43.93c3.92,0,7.68-3.45,7.5-7.5s-3.3-7.5-7.5-7.5h0Z"/>
      <path class="colour" d="M130.33,200.99c.12.44.21.88.28,1.34l-.27-1.99c.09.78.09,1.54,0,2.32l.27-1.99c-.12.76-.31,1.48-.59,2.21l.76-1.79c-.21.5-.45.99-.75,1.45-.17.27-.81,1.12.01.04s.14-.21-.06-.01c-.15.16-.33.3-.48.46-.86.88,1.21-.81.6-.46-.55.31-1.06.64-1.64.9l1.79-.76c-2.13.85-4.44,1.37-6.64,2.01-2.42.71-4.84,1.42-7.26,2.13-2.66.78-5.33,1.57-7.99,2.35-5.38,1.58-10.76,3.16-16.14,4.74-2.71.8-5.43,1.59-8.14,2.39-2.5.74-5.06,1.72-7.64,2.14l1.99-.27c-.91.11-1.8.12-2.7,0l1.99.27c-.89-.14-1.73-.37-2.56-.71l1.79.76c-.51-.23-1-.48-1.46-.78-.75-.48-.61-.87.45.38-.18-.21-.42-.38-.61-.57-.15-.15-.4-.53-.57-.62.24.12,1.16,1.62.46.56-.35-.53-.64-1.09-.89-1.68l.76,1.79c-1.16-2.97-1.87-6.16-2.77-9.22-.97-3.31-2.24-6.68-2.77-10.09l.27,1.99c-.17-1.31-.21-2.61-.06-3.92l-.27,1.99c.11-.77.28-1.5.57-2.22l-.76,1.79c.37-.83,1.29-1.7-.32.11.11-.13.24-.23.36-.35-1.46,1.37-1.41,1-.7.68l-1.79.76c3.45-1.18,7.13-1.8,10.5-3.22,5.31-2.24,7.21-8.31,6.54-13.68-.35-2.83-.89-5.68-2.44-8.14-1.39-2.2-3.25-4.04-5.48-5.38-4.25-2.57-9.62-3.06-14.36-1.73-1.94.54-3.88,1.3-5.88,1.63l1.99-.27c-.9.12-1.78.13-2.68.03l1.99.27c-.88-.12-1.71-.34-2.54-.66l1.79.76c-.56-.24-1.07-.53-1.6-.82-1.21-.68.62.5.58.51-.07.02-.69-.61-.74-.65-.2-.19-.37-.41-.56-.6-.61-.6,1.09,1.58.46.6-.37-.58-.69-1.16-.96-1.79l.76,1.79c-.55-1.41-.91-2.92-1.34-4.37l-2.8-9.54c-3.12-10.6-6.23-21.21-9.35-31.81-3.77-12.81-7.53-25.63-11.3-38.44-3.24-11.04-6.49-22.07-9.73-33.11-1.54-5.25-3.12-10.49-4.63-15.75-.14-.49-.26-.99-.34-1.5l.27,1.99c-.12-.9-.13-1.78-.03-2.68l-.27,1.99c.12-.88.34-1.71.66-2.54l-.76,1.79c.24-.56.53-1.07.82-1.6.68-1.21-.5.62-.51.58-.02-.07.61-.69.65-.74.19-.2.41-.37.6-.56.6-.61-1.58,1.09-.6.46.58-.37,1.16-.69,1.79-.96l-1.79.76c2.01-.79,4.16-1.28,6.23-1.89l13.37-3.93c10.09-2.97,20.18-5.93,30.27-8.9,2.56-.75,5.18-1.76,7.83-2.2l-1.99.27c.9-.12,1.78-.13,2.68-.03l-1.99-.27c.88.12,1.71.34,2.54.66l-1.79-.76c.56.24,1.07.53,1.6.82,1.21.68-.62-.5-.58-.51.07-.02.69.61.74.65.2.19.37.41.56.6.61.6-1.09-1.58-.46-.6.37.58.69,1.16.96,1.79l-.76-1.79c.55,1.41.91,2.92,1.34,4.37.93,3.18,1.87,6.36,2.8,9.54,3.12,10.61,6.23,21.21,9.35,31.82,3.78,12.85,7.55,25.71,11.33,38.56,3.25,11.05,6.5,22.1,9.74,33.16,1.53,5.2,3.11,10.39,4.59,15.61.18.62.31,1.25.4,1.89l-.27-1.99c.1.93.08,1.84-.04,2.76l.27-1.99c-.15.89-.38,1.74-.73,2.57l.76-1.79c-.21.45-.45.87-.69,1.31-.68,1.22.46-.67.51-.59.03.04-.5.56-.54.6-.15.15-.32.29-.47.45-.56.62,1.6-1.06.62-.47-.47.28-.93.56-1.44.79l1.79-.76c-1.88.76-3.87,1.29-5.56,2.45-2.11,1.45-3.82,3.13-5.19,5.32-2.3,3.67-3.04,8.68-1.64,12.81,1.67,4.95,5.22,8.34,10.02,10.26,1.89.76,4.01,1.09,6.04,1.08,2.16-.01,4.18-.66,6.28-1l-1.99.27c.93-.11,1.85-.11,2.78,0l-1.99-.27c.79.13,1.54.33,2.28.63l-1.79-.76c.46.2.91.42,1.34.68.1.06.68.33.69.46,0-.01-1.56-1.43-.63-.42.15.16.31.33.46.48.61.6-1.07-1.58-.45-.6.31.48.58.96.82,1.49l-.76-1.79c1.18,2.92,1.87,6.13,2.76,9.16s1.82,6.18,2.72,9.27c1.1,3.76,5.33,6.5,9.23,5.24s6.42-5.19,5.24-9.23c-.89-3.03-1.78-6.05-2.67-9.08s-1.59-5.98-2.63-8.86c-1.51-4.21-4.4-7.89-8.56-9.75-2.4-1.07-4.78-1.74-7.44-1.75-2.15,0-4.16.64-6.25.99l1.99-.27c-.95.12-1.89.13-2.84.02l1.99.27c-.92-.14-1.78-.37-2.64-.72l1.79.76c-.46-.21-.9-.44-1.33-.71-.25-.15-.95-.69.08.11,1.1.85.21.13,0-.06-.16-.15-.3-.32-.45-.48-.74-.74.64.71.57.74-.12.04-.72-1.31-.79-1.46l.76,1.79c-.24-.63-.42-1.27-.52-1.94l.27,1.99c-.09-.77-.09-1.5,0-2.27l-.27,1.99c.12-.75.33-1.46.62-2.16l-.76,1.79c.21-.45.45-.86.69-1.28.7-1.2-.46.65-.49.6-.03-.05.52-.56.57-.6.16-.16.33-.3.49-.45.63-.58-1.58,1.06-.57.46.5-.3,1-.57,1.53-.81l-1.79.76c1.96-.78,4-1.34,5.71-2.62,2.05-1.53,3.83-3.26,5.06-5.55,2.24-4.17,2.79-9.04,1.52-13.61-.16-.58-.34-1.16-.51-1.74-1.18-4.01-2.36-8.02-3.53-12.03-2-6.79-3.99-13.58-5.99-20.37-2.46-8.38-4.93-16.76-7.39-25.14-2.56-8.7-5.12-17.41-7.67-26.11-2.28-7.75-4.56-15.5-6.83-23.25l-4.95-16.83c-.66-2.24-1.29-4.49-1.98-6.72-2.79-9.01-12.08-14.46-21.3-12.11-1.3.33-2.59.76-3.88,1.13-7.25,2.13-14.5,4.26-21.75,6.4-7.87,2.31-15.73,4.62-23.6,6.94l-6,1.76C7.01,18.56,1.86,23.24.43,29.56c-1.12,4.92.17,9.03,1.51,13.58,1.5,5.1,3,10.2,4.5,15.3,2.19,7.45,4.38,14.9,6.57,22.35,2.54,8.63,5.07,17.26,7.61,25.88s4.99,16.99,7.49,25.49c2.12,7.2,4.23,14.4,6.35,21.6,1.35,4.61,2.71,9.22,4.06,13.82.28.96.56,1.93.85,2.89,1.75,5.88,6.16,10.49,12.08,12.25,3.37,1,6.96.8,10.29-.19,1.87-.55,3.77-1.25,5.71-1.52l-1.99.27c.97-.1,1.92-.1,2.88.02l-1.99-.27c.92.14,1.79.38,2.66.73l-1.79-.76c.46.21.89.46,1.33.7.26.14.95.69-.08-.11-1.1-.86-.21-.14-.01.05.16.15.29.32.45.47.74.72-.66-.71-.57-.76s.72,1.29.78,1.42l-.76-1.79c.4,1.03.64,2.11.82,3.2l-.27-1.99c.15,1.15.19,2.29.05,3.44l.27-1.99c-.1.62-.25,1.21-.5,1.8l.76-1.79c-.66,1.35.85-.85.54-.54-.45.43,1.95-1.17.67-.57l1.79-.76c-2.62.92-5.36,1.59-8.02,2.37-2.12.62-4.06,1.34-5.71,2.9s-2.64,3.44-3.3,5.5c-1.52,4.73-.55,9.66.81,14.28.97,3.29,1.93,6.58,2.9,9.87.33,1.14.67,2.28,1,3.41.8,2.71,2.01,4.97,3.8,7.13,2.21,2.68,5.59,4.75,8.98,5.52,3.72.84,7.12.36,10.73-.7,5.44-1.6,10.87-3.2,16.31-4.79,4.95-1.45,9.89-2.9,14.84-4.36,5.96-1.75,11.92-3.5,17.88-5.25,4.31-1.27,7.9-3.75,10.31-7.58s3-8.74,1.81-13.09c-1.03-3.78-5.38-6.48-9.23-5.24s-6.34,5.17-5.24,9.23Z"/>
      <path class="colour" d="M450.18,174.3v186.11c0,2.52-.05,5.04,0,7.56,0,.11,0,.22,0,.33l7.5-7.5h-34.51l7.5,7.5v-121.74c0-8.74,0-17.47,0-26.21s0-14.83,0-22.24v-15.92c0-2.52.05-5.04,0-7.56,0-.11,0-.22,0-.33l-7.5,7.5h3.48l-1.99-.27c9.69,2.35,19.75,2.35,29.44,0l-1.99.27h5.57c3.92,0,7.68-3.45,7.5-7.5s-3.3-7.5-7.5-7.5h-4.41c-3.02,0-5.96.95-8.95,1.36l1.99-.27c-4.61.58-9.26.58-13.87,0l1.99.27c-2.66-.36-5.37-1.29-8.05-1.36-1.07-.03-2.15,0-3.22,0-4.05,0-7.5,3.44-7.5,7.5v186.11c0,2.52-.03,5.04,0,7.56,0,.11,0,.22,0,.33,0,4.05,3.44,7.5,7.5,7.5h34.51c4.05,0,7.5-3.44,7.5-7.5v-186.11c0-2.52.03-5.04,0-7.56,0-.11,0-.22,0-.33,0-3.92-3.45-7.68-7.5-7.5s-7.5,3.3-7.5,7.5Z"/>
      <path class="colour" d="M168.6,356.68c-5.23,1.64-10.46,3.28-15.69,4.92l1.99-.27h-18.94l7.23,5.51c-2.27-7.24-4.54-14.49-6.82-21.73-4.3-13.7-8.59-27.4-12.89-41.1-2.55-8.12-5.09-16.23-7.64-24.35-2.58-8.23-5.16-16.47-7.75-24.7-3.45-11.01-6.9-22.01-10.36-33.02-.06-.21-.13-.41-.19-.62l-5.24,9.23c9.66-2.84,19.32-5.67,28.98-8.51l4.14-1.22-9.23-5.24c2.87,9.16,5.75,18.32,8.62,27.48l11.43,36.44c1.71,5.46,3.42,10.92,5.14,16.38,4.3,13.72,8.6,27.43,12.9,41.15,2.97,9.47,5.89,18.95,8.91,28.4.05.16.1.31.15.47,1.17,3.74,5.28,6.52,9.23,5.24s6.5-5.22,5.24-9.23c-2.5-7.98-5.01-15.97-7.51-23.95-4.39-14-8.78-27.99-13.17-41.99-1.96-6.26-3.93-12.52-5.89-18.78-3.44-10.97-6.88-21.94-10.32-32.91-3.36-10.71-6.72-21.41-10.07-32.12l-.18-.58c-1.2-3.82-5.22-6.42-9.23-5.24-9.66,2.84-19.32,5.67-28.98,8.51l-4.14,1.22c-3.79,1.11-6.47,5.3-5.24,9.23,2.97,9.48,5.94,18.95,8.92,28.43s5.91,18.82,8.86,28.24c2.24,7.13,4.47,14.26,6.71,21.4,4.29,13.66,8.57,27.33,12.86,40.99,2.72,8.68,5.36,17.4,8.17,26.06.04.14.09.27.13.41.99,3.16,3.85,5.51,7.23,5.51h15.7c1.9,0,3.84.14,5.69-.41,2.67-.8,5.33-1.67,7.99-2.5,2.42-.76,4.83-1.51,7.25-2.27,3.74-1.17,6.52-5.28,5.24-9.23s-5.22-6.49-9.23-5.24Z"/>
      <path class="colour" d="M164.25,289.52c.46,0,.92.04,1.38.1l-1.99-.27c.89.14,1.74.38,2.58.73l-1.79-.76c.5.23.99.48,1.45.78.74.48.63.88-.47-.39.17.2.41.37.6.56.06.06.58.57.56.6-.03.04-1.21-1.79-.48-.6.32.52.62,1.03.87,1.59l-.76-1.79c.35.84.59,1.68.73,2.58l-.27-1.99c.2,1.67.1,3.39.1,5.07v10.69c0,11.78,0,23.56,0,35.34s0,28.58,0,42.87,0,24.64,0,36.96c0,5.88.04,11.76,0,17.63,0,.52-.03,1.03-.1,1.54l.27-1.99c-.14.89-.38,1.74-.73,2.58l.76-1.79c-.23.5-.48.99-.78,1.45-.48.74-.88.63.39-.47-.2.17-.37.41-.56.6-.06.06-.57.58-.6.56-.04-.03,1.79-1.21.6-.48-.52.32-1.03.62-1.59.87l1.79-.76c-.84.35-1.68.59-2.58.73l1.99-.27c-1.27.16-2.58.1-3.86.1h-87.68c-4.04,0-8.07.04-12.11,0-.5,0-.98-.04-1.48-.1l1.99.27c-.89-.14-1.74-.38-2.58-.73l1.79.76c-.5-.23-.99-.48-1.45-.78-.74-.48-.63-.88.47.39-.17-.2-.41-.37-.6-.56-.06-.06-.58-.57-.56-.6.03-.04,1.21,1.79.48.6-.32-.52-.62-1.03-.87-1.59l.76,1.79c-.35-.84-.59-1.68-.73-2.58l.27,1.99c-.2-1.67-.1-3.39-.1-5.07v-10.69c0-11.78,0-23.56,0-35.34s0-28.58,0-42.87,0-24.64,0-36.96c0-5.88-.04-11.76,0-17.63,0-.52.03-1.03.1-1.54l-.27,1.99c.14-.89.38-1.74.73-2.58l-.76,1.79c.23-.5.48-.99.78-1.45.48-.74.88-.63-.39.47.2-.17.37-.41.56-.6.06-.06.57-.58.6-.56.04.03-1.79,1.21-.6.48.52-.32,1.03-.62,1.59-.87l-1.79.76c.84-.35,1.68-.59,2.58-.73l-1.99.27c1.55-.19,3.16-.1,4.72-.1h29.12c1.82,0,3.69-.11,5.51.09l-1.99-.27c1.18.17,2.3.48,3.41.93l-1.79-.76c.78.34,1.53.72,2.25,1.17.21.13.41.26.61.4.62.45.4.28-.64-.51.29.3.65.55.96.84s.6.6.88.91c.16.18.31.36.46.55-.76-1.01-.97-1.27-.64-.8.47.75.92,1.48,1.28,2.3l-.76-1.79c1.2,3,1.99,6.21,2.95,9.29,2.08,6.67,4.16,13.35,6.24,20.02,3.96,12.69,7.91,25.38,11.87,38.08.24.78.48,1.57.73,2.35,2.66,8.13,9.84,14.04,18.34,14.96,3,.33,6.16-.1,9.15-.48,3.47-.44,6.96-.92,10.35-1.84,4.09-1.11,7.54-3.44,9.71-7.14,2.31-3.93,2.74-8.53,1.91-12.94-.65-3.44-2.03-6.83-3.07-10.17-2.14-6.87-4.29-13.75-6.43-20.62-3.54-11.37-7.12-22.73-10.63-34.11-.21-.69-.39-1.37-.5-2.09l.27,1.99c-.08-.74-.08-1.45.02-2.18l-.27,1.99c.1-.58.26-1.13.48-1.67l-.76,1.79c.16-.35.35-.66.54-.99.61-1.03-1.39,1.58-.37.55s-1.57.97-.52.36c.34-.2.68-.4,1.04-.56l-1.79.76c.69-.29,1.39-.48,2.13-.6l-1.99.27c1.87-.23,3.81-.1,5.68-.1h5.29c3.92,0,7.68-3.45,7.5-7.5s-3.3-7.5-7.5-7.5c-3.05,0-6.1,0-9.16,0s-6.42.63-9.01,2.44c-3.94,2.74-6.23,6.83-6.38,11.66-.07,2.36.57,4.55,1.26,6.75l2.03,6.52c2.23,7.15,4.45,14.29,6.68,21.44,2.35,7.54,4.7,15.07,7.05,22.61,1.18,3.79,2.4,7.57,3.54,11.37.19.64.34,1.28.45,1.94l-.27-1.99c.14,1.1.14,2.18,0,3.27l.27-1.99c-.13.8-.33,1.56-.63,2.32l.76-1.79c-.17.41-.36.81-.58,1.19-.03.04-.33.56-.35.55-.09-.05,1.46-1.6.47-.65-.14.14-.33.29-.45.45-.38.51,1.35-.87.78-.58-.42.21-.8.49-1.24.69l1.79-.76c-3.04,1.2-6.49,1.64-9.71,2.08l1.99-.27c-3.1.4-6.42.9-9.54.53l1.99.27c-1.03-.16-2.02-.44-2.98-.82l1.79.76c-.77-.33-1.5-.71-2.21-1.16-.2-.13-.4-.27-.6-.4-.61-.45-.39-.28.65.51-.28-.31-.65-.56-.95-.85s-.58-.62-.87-.93c-.93-.98,1.12,1.6.18.23-.51-.74-.93-1.52-1.28-2.35l.76,1.79c-.89-2.23-1.48-4.6-2.2-6.88-1.57-5.04-3.14-10.08-4.71-15.12-3.76-12.05-7.51-24.1-11.27-36.15-1.09-3.51-2.19-7.02-3.28-10.53-.55-1.75-1.16-3.48-2.06-5.09-3.29-5.85-9.51-9.93-16.11-10.81-4.08-.55-8.35-.22-12.46-.22-6.41,0-12.82,0-19.22,0-5.48,0-11.1-.51-16.06,2.37-5.38,3.12-8.64,8.97-8.73,15.15,0,.36,0,.73,0,1.09v145.63c0,1.61.16,3.23.52,4.81,1.46,6.38,7.14,11.85,13.61,12.93,2.56.43,5.04.36,7.62.36h29.64c13.08,0,26.16,0,39.24,0,8.98,0,17.95,0,26.93,0,.71,0,1.42,0,2.13,0,4.61-.03,8.94-1.75,12.31-4.91s5.31-7.97,5.37-12.69c0-.48,0-.95,0-1.43,0-6.75,0-13.5,0-20.25,0-11.81,0-23.61,0-35.42s0-26.48,0-39.72v-33.64c0-5.48.02-10.96,0-16.44-.03-9.75-7.71-17.68-17.5-17.85-3.92-.07-7.68,3.5-7.5,7.5s3.29,7.43,7.5,7.5Z"/>
      <g>
        <path class="colour" d="M203.08,176.21c-6.25.11-12.45,3.5-15.37,9.16-1.42,2.76-2.12,5.65-2.13,8.75,0,2.39,0,4.79,0,7.18v76.2c0,4.02.24,7.85,2.29,11.52,3.25,5.82,9.49,8.87,15.99,8.87h29.7c11.41,0,22.82,0,34.23,0,12.07,0,24.15,0,36.22,0,10.04,0,20.08,0,30.12,0h15.6c6.65,0,13.19-3.32,16.21-9.45,1.79-3.63,1.98-7.24,1.98-11.13v-62.59c0-6.89.02-13.78,0-20.67-.03-9.73-7.72-17.69-17.5-17.84-1.01-.02-2.02,0-3.03,0h-20.32c-10.87,0-21.75,0-32.62,0-12.16,0-24.33,0-36.49,0-10.76,0-21.52,0-32.27,0h-22.6c-3.92,0-7.68,3.45-7.5,7.5s3.3,7.5,7.5,7.5h129.71c5.82,0,11.64-.03,17.46,0,.52,0,1.03.03,1.54.1l-1.99-.27c.89.14,1.74.38,2.58.73l-1.79-.76c.5.23.99.48,1.45.78.74.48.63.88-.47-.39.17.2.41.37.6.56.06.06.58.57.56.6-.03.04-1.21-1.79-.48-.6.32.52.62,1.03.87,1.59l-.76-1.79c.35.84.59,1.68.73,2.58l-.27-1.99c.38,3.13.1,6.44.1,9.58v68.18c0,3.41.04,6.81,0,10.22,0,.49-.04.97-.1,1.46l.27-1.99c-.14.89-.38,1.74-.73,2.58l.76-1.79c-.23.5-.48.99-.78,1.45-.48.74-.88.63.39-.47-.2.17-.37.41-.56.6-.06.06-.57.58-.6.56-.04-.03,1.79-1.21.6-.48-.52.32-1.03.62-1.59.87l1.79-.76c-.84.35-1.68.59-2.58.73l1.99-.27c-1.67.2-3.39.1-5.07.1h-125.85c-5.88,0-11.76.04-17.63,0-.52,0-1.03-.03-1.54-.1l1.99.27c-.89-.14-1.74-.38-2.58-.73l1.79.76c-.5-.23-.99-.48-1.45-.78-.74-.48-.63-.88.47.39-.17-.2-.41-.37-.6-.56-.06-.06-.58-.57-.56-.6.03-.04,1.21,1.79.48.6-.32-.52-.62-1.03-.87-1.59l.76,1.79c-.35-.84-.59-1.68-.73-2.58l.27,1.99c-.38-3.13-.1-6.44-.1-9.58v-68.18c0-3.41-.04-6.81,0-10.22,0-.49.04-.97.1-1.46l-.27,1.99c.14-.89.38-1.74.73-2.58l-.76,1.79c.23-.5.48-.99.78-1.45.48-.74.88-.63-.39.47.2-.17.37-.41.56-.6.06-.06.57-.58.6-.56.04.03-1.79,1.21-.6.48.52-.32,1.03-.62,1.59-.87l-1.79.76c.84-.35,1.68-.59,2.58-.73l-1.99.27c.46-.06.92-.09,1.38-.1,3.92-.07,7.68-3.4,7.5-7.5s-3.3-7.57-7.5-7.5Z"/>
        <path class="colour" d="M244.5,226.13c0-.46.04-.92.1-1.38l-.27,1.99c.14-.89.38-1.74.73-2.58l-.76,1.79c.23-.5.48-.99.78-1.45.48-.74.88-.63-.39.47.2-.17.37-.41.56-.6.06-.06.57-.58.6-.56.04.03-1.79,1.21-.6.48.52-.32,1.03-.62,1.59-.87l-1.79.76c.84-.35,1.68-.59,2.58-.73l-1.99.27c2.41-.29,4.94-.1,7.36-.1h50.18c2.92,0,5.98-.26,8.89.1l-1.99-.27c.89.14,1.74.38,2.58.73l-1.79-.76c.5.23.99.48,1.45.78.74.48.63.88-.47-.39.17.2.41.37.6.56.06.06.58.57.56.6-.03.04-1.21-1.79-.48-.6.32.52.62,1.03.87,1.59l-.76-1.79c.35.84.59,1.68.73,2.58l-.27-1.99c.33,2.69.1,5.52.1,8.22v11.7c0,1.2.05,2.43-.1,3.62l.27-1.99c-.14.89-.38,1.74-.73,2.58l.76-1.79c-.23.5-.48.99-.78,1.45-.48.74-.88.63.39-.47-.2.17-.37.41-.56.6-.06.06-.57.58-.6.56-.04-.03,1.79-1.21.6-.48-.52.32-1.03.62-1.59.87l1.79-.76c-.84.35-1.68.59-2.58.73l1.99-.27c-2.41.29-4.94.1-7.36.1h-50.18c-2.92,0-5.98.26-8.89-.1l1.99.27c-.89-.14-1.74-.38-2.58-.73l1.79.76c-.5-.23-.99-.48-1.45-.78-.74-.48-.63-.88.47.39-.17-.2-.41-.37-.6-.56-.06-.06-.58-.57-.56-.6.03-.04,1.21,1.79.48.6-.32-.52-.62-1.03-.87-1.59l.76,1.79c-.35-.84-.59-1.68-.73-2.58l.27,1.99c-.31-2.54-.1-5.2-.1-7.75v-14.41c0-3.92-3.45-7.68-7.5-7.5s-7.5,3.3-7.5,7.5c0,6.9-.08,13.8,0,20.69.11,9.64,7.86,17.45,17.51,17.6,1.49.02,2.97,0,4.46,0h58.62c6.62,0,13.26-3.44,16.17-9.61,1.32-2.81,1.91-5.67,1.91-8.78v-18.48c0-2.17-.07-4.36-.74-6.44-1.73-5.4-5.61-9.29-10.81-11.39-2.76-1.12-5.68-1.09-8.59-1.09h-59.44c-.51,0-1.02,0-1.54,0-4.45.06-8.46,1.69-11.81,4.58-3.69,3.19-5.65,8.11-5.74,12.92-.07,3.92,3.5,7.68,7.5,7.5s7.43-3.29,7.5-7.5Z"/>
      </g>
      <path class="colour" d="M488.26,121.4c0-2.75,2.25-5,5-5h4.94c2.75,0,5-2.25,5-5v-5.02c0-2.75,2.25-5,5-5h2.6c2.75,0,5,2.25,5,5v5.02c0,2.75,2.25,5,5,5h5.02c2.75,0,5,2.25,5,5v2.6c0,2.75-2.25,5-5,5h-5.02c-2.75,0-5,2.25-5,5v4.94c0,2.75-2.25,5-5,5h-2.6c-2.75,0-5-2.25-5-5v-4.94c0-2.75-2.25-5-5-5h-4.94c-2.75,0-5-2.25-5-5v-2.6Z"/>
      <path class="colour" d="M538.06,121.4c0-2.75,2.25-5,5-5h4.94c2.75,0,5-2.25,5-5v-5.02c0-2.75,2.25-5,5-5h2.6c2.75,0,5,2.25,5,5v5.02c0,2.75,2.25,5,5,5h5.02c2.75,0,5,2.25,5,5v2.6c0,2.75-2.25,5-5,5h-5.02c-2.75,0-5,2.25-5,5v4.94c0,2.75-2.25,5-5,5h-2.6c-2.75,0-5-2.25-5-5v-4.94c0-2.75-2.25-5-5-5h-4.94c-2.75,0-5-2.25-5-5v-2.6Z"/>
    </g>
  </g>
</svg>
